#!OML:ASF I:\Actors\actors\Patient Classification 2\Patient 1\Session 1\actor1.ASF
:FULLY-SPECIFIED
:DEGREES
227
root -0.6219 18.7669 5.56554 4.90597 -6.29179 -3.43489
lowerback 6.90188 1.23311 -5.75308
upperback -0.445781 1.03842 -2.75552
thorax -4.39579 0.612261 0.255301
lowerneck -7.00503 -4.70416 -1.63324
upperneck 23.3691 -11.7221 21.614
head 10.0986 -3.65146 6.69169
rclavicle -4.17448e-015 1.90833e-014
rhumerus 15.7948 44.1697 -41.0626
rradius 116.805
rwrist -22.1891
rhand -15.5201 -24.1986
rfingers 7.12502
rthumb 10.6631 -53.9081
lclavicle -4.17448e-015 1.90833e-014
lhumerus 0.832065 13.1186 80.9962
lradius 126.177
lwrist 105.509
lhand -29.7919 -29.2067
lfingers 7.12502
lthumb -3.11653 0.750289
rfemur 0 0 0
rtibia 0
rfoot 0 0
rtoes 0
lfemur -7.05151 -6.10436 -11.118
ltibia 22.4661
lfoot -26.6799 18.7376
ltoes -52.6041
228
root -0.621411 18.7677 5.56554 4.92197 -6.31304 -3.42455
lowerback 6.93218 1.22665 -5.74723
upperback -0.463495 1.02828 -2.72394
thorax -4.43137 0.608459 0.284989
lowerneck -7.09891 -4.7407 -1.60692
upperneck 23.6043 -11.7724 21.3622
head 10.1896 -3.67225 6.5944
rclavicle 3.97569e-015 6.36111e-015
rhumerus 14.8245 44.1018 -41.2225
rradius 116.716
rwrist -22.1962
rhand -15.326 -23.9528
rfingers 7.12502
rthumb 10.8503 -53.6525
lclavicle 3.97569e-015 6.36111e-015
lhumerus 0.911964 13.4375 81.0326
lradius 126.12
lwrist 105.413
lhand -30.1165 -29.8691
lfingers 7.12502
lthumb -3.42992 0.0830691
rfemur 0 0 0
rtibia 0
rfoot 0 0
rtoes 0
lfemur -7.06466 -6.03839 -11.1246
ltibia 22.46
lfoot -26.6631 18.6969
ltoes -52.6081
229
root -0.619548 18.768 5.56465 4.90503 -6.33113 -3.43447
lowerback 6.97549 1.2244 -5.69204
upperback -0.448152 1.02772 -2.71243
thorax -4.43879 0.606971 0.265654
lowerneck -7.14305 -4.76688 -1.57738
upperneck 23.6838 -11.7998 21.2257
head 10.2192 -3.68612 6.53599
rclavicle -3.77691e-015 3.49861e-014
rhumerus 14.0963 44.0222 -41.1378
rradius 116.75
rwrist -22.3238
rhand -15.4917 -23.9274
rfingers 7.12502
rthumb 10.6905 -53.6354
lclavicle -3.77691e-015 3.49861e-014
lhumerus 1.08381 13.7113 81.1043
lradius 126.05
lwrist 105.091
lhand -30.2534 -30.3835
lfingers 7.12502
lthumb -3.56217 -0.433519
rfemur 0 0 0
rtibia 0
rfoot 0 0
rtoes 0
lfemur -7.03632 -5.98463 -11.1151
ltibia 22.4509
lfoot -26.649 18.6358
ltoes -52.5956
230
root -0.616417 18.768 5.56648 4.93077 -6.3787 -3.41581
lowerback 6.89811 1.2117 -5.67521
upperback -0.431402 1.01991 -2.70388
thorax -4.37698 0.601431 0.26803
lowerneck -7.11266 -4.74243 -1.58158
upperneck 23.6378 -11.7469 21.209
head 10.1865 -3.66874 6.53439
rclavicle 1.33186e-014 -3.65764e-014
rhumerus 13.5595 43.9639 -41.0618
rradius 116.668
rwrist -22.1007
rhand -15.5665 -23.9164
rfingers 7.12502
rthumb 10.6183 -53.6281
lclavicle 1.33186e-014 -3.65764e-014
lhumerus 1.23325 14.0464 81.1629
lradius 125.959
lwrist 104.849
lhand -30.3417 -30.7818
lfingers 7.12502
lthumb -3.6474 -0.833229
rfemur 0 0 0
rtibia 0
rfoot 0 0
rtoes 0
lfemur -7.03801 -6.00143 -11.1546
ltibia 22.4422
lfoot -26.6844 18.6803
ltoes -52.5551
231
root -0.613633 18.7684 5.56918 4.98602 -6.43314 -3.3692
lowerback 6.78609 1.1978 -5.69885
upperback -0.445322 1.00801 -2.70162
thorax -4.32824 0.595411 0.286946
lowerneck -7.04381 -4.71278 -1.61028
upperneck 23.623 -11.6951 21.221
head 10.1612 -3.65194 6.55102
rclavicle 5.36719e-015 1.90833e-014
rhumerus 13.0352 43.9524 -41.0259
rradius 116.497
rwrist -21.7739
rhand -15.6009 -24.0252
rfingers 7.12502
rthumb 10.5851 -53.7387
lclavicle 5.36719e-015 1.90833e-014
lhumerus 1.27106 14.4018 81.151
lradius 125.839
lwrist 104.865
lhand -30.3909 -31.1444
lfingers 7.12502
lthumb -3.69493 -1.19668
rfemur 0 0 0
rtibia 0
rfoot 0 0
rtoes 0
lfemur -7.07707 -6.01378 -11.2234
ltibia 22.4382
lfoot -26.7301 18.7588
ltoes -52.6092
232
root -0.611893 18.7683 5.57003 5.00414 -6.45763 -3.3289
lowerback 6.75484 1.18762 -5.71359
upperback -0.4647 0.994367 -2.71075
thorax -4.33035 0.589221 0.287421
lowerneck -6.9686 -4.70901 -1.63723
upperneck 23.6401 -11.6894 21.2367
head 10.1536 -3.65431 6.56517
rclavicle 0 -6.36111e-015
rhumerus 12.3984 43.9663 -41.0263
rradius 116.375
rwrist -21.6901
rhand -15.5462 -24.3463
rfingers 7.12502
rthumb 10.6379 -54.0571
lclavicle 0 -6.36111e-015
lhumerus 1.30198 14.7533 81.158
lradius 125.705
lwrist 105.08
lhand -30.4237 -31.5126
lfingers 7.12502
lthumb -3.72662 -1.56542
rfemur 0 0 0
rtibia 0
rfoot 0 0
rtoes 0
lfemur -7.09635 -5.97467 -11.2742
ltibia 22.4364
lfoot -26.7233 18.7496
ltoes -52.613
